<?xml version="1.0" encoding="utf-8"?>
<!-- Generator: Adobe Illustrator 19.0.0, SVG Export Plug-In . SVG Version: 6.00 Build 0)  -->
<svg version="1.1" id="Layer_1" xmlns="http://www.w3.org/2000/svg" xmlns:xlink="http://www.w3.org/1999/xlink" x="0px" y="0px"
	 viewBox="135 -34.3 289.5 88.3" style="enable-background:new 135 -34.3 289.5 88.3;" xml:space="preserve">
<style type="text/css">
	.st0{fill:#335968;}
	.st1{fill:#274F5E;}
	.st2{fill:#54BA82;}
	.st3{fill:#2F5568;}
	.st4{fill:#A20000;}
</style>
<g id="Group_623" transform="translate(-1130.213 -496.788)">
	<g id="Group_600" transform="translate(797.577 337.686) rotate(-7)">
		<g id="Group_598" transform="translate(520.183 243.502)">
			<g id="Group_597" transform="translate(1.817)">
				<path id="Path_943" class="st0" d="M145.5-17c-0.7-0.4-1.7-0.1-2.1,0.6c-0.1,0.1-0.1,0.2-0.1,0.3l-4.7,12.3l9.3-9.8
					c0.5-0.6,0.5-1.6-0.2-2.1c-0.1-0.1-0.2-0.1-0.3-0.2L145.5-17z"/>
				<path id="Path_944" class="st0" d="M152.6-9.7c0.4,0.8,0.1,1.7-0.7,2c-0.1,0-0.2,0.1-0.3,0.1l-12.4,4.3l10.1-9
					c0.7-0.5,1.6-0.4,2.1,0.2c0.1,0.1,0.1,0.2,0.2,0.3L152.6-9.7z"/>
			</g>
			<path id="Path_945" class="st1" d="M151.3-16c-0.8-0.8-2.1-0.9-3-0.1c-0.1,0.1-0.2,0.2-0.3,0.3l-9.4,14.2l14.5-8.9
				c1-0.6,1.3-1.9,0.7-2.9c-0.1-0.1-0.2-0.2-0.3-0.4L151.3-16z"/>
			<path id="Path_946" class="st2" d="M143.3-5.9l-1.5-1.5c-0.3-0.3-0.8-0.3-1.1,0c-0.1,0.1-0.2,0.2-0.2,0.3l-1.7,4.8l0.4,0.3
				l0.2,0.3l4.7-1.6c0.4-0.1,0.7-0.6,0.5-1c0-0.1-0.1-0.2-0.2-0.3L143.3-5.9z"/>
		</g>
		<g id="Group_599" transform="translate(514.529 254.906)">
			<path id="Path_947" class="st2" d="M138.8-9.6l-0.2-1.8h0.1c0.2,0,4.8-0.6,8-5.8l1.5,0.9C146.2-12.7,142.8-10.3,138.8-9.6z"/>
		</g>
	</g>
	<g id="Group_601" transform="translate(1163.06 499.288)">
		<path id="Path_948" class="st3" d="M159-16.3l3.6-1.8c2.2,2.2,4.1,4.7,5.6,7.4l-1.9,1.5l2.3-0.9c0.8,1.3,1.6,2.6,2.2,4
			c0.4,0.7,0.7,1.4,0.9,2.2l-1.9,1.3l2.1-0.8l3.4,6l-6.9-0.4l0.3-1.8l-0.9,1.7c-2.5-0.6-4.9-1.4-7.3-2.4l0.6-1.8L160-0.4L157.2-2
			l1.6-4l-2.6,3.5c0,0-5.8-3.9-8.4-8.1l1.4-3.1l-2.1,2.5c-1.7-2-3-4.3-3.8-6.8c-0.6-2.2-0.9-4.6-0.7-6.9c-1.3-1.4-7-7.9-7-7.9
			c-0.5-0.5,0.1-1.5,0.4-1.2c0.2,0.3,5.8,7,7,8.6c2-0.4,4-0.4,6-0.1l-1.6,2c0.9-0.5,1.7-1.1,2.5-1.7l1.9,0.4l-1.4,1.4
			c0.7-0.5,1.4-0.9,2.1-1.2c3.5,1.3,6.7,3.2,9.4,5.8L159-16.3z"/>
		<path id="Path_949" class="st2" d="M171.1,0.1c0,0-0.4-0.3-1.2-0.9c-0.4-0.3-0.9-0.6-1.4-1.1s-1.1-0.9-1.8-1.4s-1.4-1.1-2.1-1.7
			s-1.5-1.3-2.3-2s-1.6-1.4-2.5-2.1s-1.7-1.5-2.5-2.3l-2.5-2.3c-0.8-0.8-1.6-1.5-2.4-2.2l-2.2-2.1l-2-1.9c-1.2-1.2-2.2-2.2-2.9-2.9
			l-1.1-1.1l0.2,0.2c0.2,0.2,0.4,0.5,0.7,0.9c0.6,0.8,1.6,1.8,2.7,3.1c0.6,0.6,1.2,1.3,1.9,2s1.4,1.4,2.1,2.2s1.5,1.5,2.3,2.3
			s1.6,1.5,2.5,2.3s1.7,1.5,2.5,2.2s1.7,1.4,2.5,2.1s1.6,1.3,2.4,1.9s1.5,1.2,2.2,1.6s1.3,0.9,1.9,1.3s1.1,0.7,1.5,1
			C170.6-0.2,171.1,0.1,171.1,0.1z"/>
	</g>
	<g id="Group_602" transform="translate(872.303 156.088) rotate(9)">
		<path id="Path_950" class="st2" d="M688.8,282.8l-3.3-7.9l4.1,7.2c1.6-1.7,3.1-3.4,4.5-5.3l-2.2-5.1l2.7,4.5
			c0.7-1.1,2.4-3.4,2.9-4.4l-1.3-2.7l1.7,1.9c1.2-2.2,2.1-4.6,2.6-7.1c-1.8-1-3.7-1.9-5.7-2.6l0.1,2l-0.7-2.1
			c-1-0.3-2.2-0.7-3.4-0.9l0.6,4.2L690,260c-2.7-0.5-5.5-0.7-8.2-0.6c0.4,2.5,1,5,1.8,7.4l-3.1-7.3c-2.4,0.3-4.8,0.9-7.1,1.7
			c-8.4,3.6-11.3,9.4-11.3,9.4l1.7,4.2l-2.2-3.3c-0.9,3-0.8,6.2,0.2,9.1c0,0,0.1,0.3,0.3,0.8l-11.4,6.3c0.4,0.9,1.5,0.4,1.5,0.4
			l10.3-5.9c1,2.1,2.8,3.8,4.9,4.8c2.8,1.2,5.4,1.3,9.8,0.8c0.3,0-2.1-4.9-2.1-4.9s2.9,4.6,3.2,4.5c1.9-0.4,3.7-1,5.5-1.7
			C685.6,284.9,687.3,283.9,688.8,282.8z"/>
		<path id="Path_951" class="st3" d="M695,266.5l-1.3,0.5c-0.9,0.3-2.1,0.8-3.5,1.4l-2.3,1l-2.6,1.1l-2.8,1.2
			c-0.9,0.4-1.9,0.8-2.8,1.3c-1.9,0.9-3.8,1.8-5.5,2.6c-0.9,0.4-1.7,0.8-2.5,1.2s-1.6,0.8-2.3,1.1l-1.9,1l-1.5,0.8
			c-0.8,0.4-1.3,0.6-1.3,0.6s0.4-0.3,1.2-0.8l1.4-0.9c0.5-0.3,1.2-0.7,1.8-1.1l1.1-0.6l1.1-0.6c0.8-0.4,1.6-0.9,2.5-1.4
			s1.8-0.9,2.7-1.4s1.9-0.9,2.8-1.3s1.9-0.9,2.9-1.3s1.9-0.8,2.8-1.1s1.8-0.7,2.6-1s1.6-0.6,2.4-0.8c1.5-0.5,2.7-0.9,3.6-1.1
			S695,266.5,695,266.5z"/>
	</g>
	<g id="Group_603" transform="matrix(0.616, -0.788, 0.788, 0.616, 1046.087, 626.914)">
		<path id="Path_952" class="st3" d="M393.2,286.8c0,0,9.5,13,11.9,22.5s-0.6,19.4-0.6,19.4c-1.7-4.3-3.7-8.4-5.9-12.5
			c-3.4-5.9-4.2-10.2-5.3-16.2C392.8,295.6,392.7,291.2,393.2,286.8z"/>
		<path id="Path_953" class="st2" d="M397.3,300.4c0,0,0.2,0.3,0.4,0.9c0.3,0.6,0.6,1.4,1,2.5s0.9,2.2,1.3,3.5
			c0.5,1.3,0.9,2.7,1.4,4.1c0.2,0.7,0.4,1.4,0.6,2.1s0.4,1.4,0.6,2.1c0.3,1.3,0.6,2.6,0.8,3.7c0.1,0.5,0.2,1,0.3,1.5
			s0.1,0.8,0.2,1.2l0.1,1l-0.3-1c-0.1-0.3-0.2-0.7-0.3-1.1l-0.4-1.4c-0.3-1.1-0.7-2.3-1.1-3.6l-1.3-4.1c-0.4-1.4-0.9-2.8-1.3-4.1
			l-1.1-3.6c-0.3-1.1-0.6-1.9-0.7-2.6C397.4,300.7,397.3,300.4,397.3,300.4z"/>
	</g>
	<g id="Group_604" transform="translate(717.104 306.388) rotate(10)">
		<path id="Path_954" class="st3" d="M578.2,120.3c0,0,5.7-10.3,11.2-14.8c5.5-4.5,13-5.6,13-5.6s-3.5,4.9-5.7,8.1
			c-2.9,4.1-4.8,6.6-9.7,9.5C584.3,119,581.3,119.9,578.2,120.3z"/>
		<path id="Path_955" class="st2" d="M582.1,118.2l0.6-0.7c0.4-0.4,0.9-1,1.6-1.7c0.7-0.7,1.4-1.5,2.3-2.4c0.8-0.9,1.8-1.8,2.7-2.7
			c0.9-0.9,1.8-1.8,2.7-2.6c0.9-0.8,1.7-1.6,2.4-2.2c1.5-1.3,2.5-2.1,2.5-2.1l-0.6,0.7c-0.4,0.4-0.9,1-1.6,1.7l-2.3,2.4l-2.7,2.7
			L587,114l-2.4,2.3c-0.7,0.7-1.3,1.2-1.7,1.6L582.1,118.2z"/>
	</g>
	<g id="Group_605" transform="matrix(0.259, -0.966, 0.966, 0.259, 622.878, 1009.539)">
		<path id="Path_956" class="st2" d="M651.5,566.9c-2.6,0.2-5.1,0.1-7.6-0.4l1.9-1.7c-0.9,0.5-1.8,1-2.7,1.4c-1-0.3-3.2-1.4-3.2-1.4
			l4.8-3.2c0,0-5.4,2.9-5.8,2.7c-2.8-1.5-5.7-4.9-7.8-8.3c-2-3.5-3.4-7.3-4.1-11.3l1.8-0.8l-1.9,0.2c-0.1-0.7-0.3-2.3-0.3-2.3
			l1.5-0.4l-1.5-0.1l0.5-8.1c3.3,1.3,6.4,2.9,9.3,4.8c0.3,0.2-0.9,2.7-0.9,2.7s1.3-2.5,1.5-2.4c0.6,0.4,2.4,1.3,3,1.8l-2.8,4.2
			l3.2-3.8c2.9,1.5,5.4,4.6,7.1,6.8C651.2,552,654.2,557.9,651.5,566.9z"/>
		<path id="Path_957" class="st0" d="M630.3,537.5l0.8,1.2l1,1.4l1.2,1.8l3.1,4.5l1.7,2.5c0.6,0.9,1.2,1.7,1.8,2.6
			c0.6,0.9,1.2,1.7,1.8,2.6l1.8,2.5l1.7,2.3l1.5,2c0.5,0.6,0.9,1.2,1.3,1.7c0.4,0.5,0.8,0.9,1.1,1.3c0.6,0.7,0.9,1.1,0.9,1.1
			s-0.4-0.3-1.1-1c-0.3-0.3-0.8-0.7-1.2-1.1s-1-1-1.5-1.5s-1.1-1.2-1.7-1.9s-1.2-1.4-1.8-2.2s-1.3-1.6-1.9-2.4
			c-0.6-0.8-1.2-1.7-1.8-2.6c-0.6-0.9-1.2-1.7-1.8-2.6s-1.1-1.7-1.7-2.6s-1-1.7-1.5-2.4s-0.9-1.5-1.3-2.2c-0.8-1.4-1.4-2.6-1.8-3.4
			S630.3,537.5,630.3,537.5z"/>
		<path id="Path_958" class="st2" d="M659.1,579.9l-9.9-15.3l0.6-0.4c0,0,9.9,14,10.4,15.2C660.4,579.9,660.3,581.5,659.1,579.9z"/>
	</g>
	<path class="st4" d="M1410,462.8L1410,462.8c-24.1,0-43.8,19.6-43.8,43.8c0,24.1,19.6,43.8,43.8,43.8c24.1,0,43.8-19.6,43.8-43.8
		C1453.7,482.4,1434.1,462.8,1410,462.8z M1427,534.8c-14.5,8.8-33.6,5.1-43.7-8.9c-4.1-5.7-6.2-12.3-6.2-19.3l0,0
		c0-8,3-15.8,8.3-21.8L1427,534.8z M1435.2,527.7l-41.5-49.8c6.8-3.9,14.6-5.2,22.3-3.8c8.6,1.6,16.2,6.5,21.1,13.7
		C1445.6,500.2,1444.6,516.5,1435.2,527.7z"/>
</g>
</svg>
