<svg xmlns="http://www.w3.org/2000/svg" width="757.131" height="139.706" viewBox="0 0 757.131 139.706">
  <g id="Group_626" data-name="Group 626" transform="translate(-341 -635.927)">
    <g id="Group_623" data-name="Group 623" transform="translate(0 26)">
      <path id="Path_878" data-name="Path 878" d="M12968.723,219.2s2.232-38.369-46.874-63.853-103.794-12.176-185.267,13.45-90.4-44.315-242.186-9.061-180.567-32.705-229-4.389-10.949,63.853-10.949,63.853Z" transform="translate(-11870.607 530.354)" fill="#f4fafe"/>
      <g id="Group_425" data-name="Group 425" transform="translate(70.182 98.946)">
        <g id="Group_423" data-name="Group 423" transform="translate(362.939 589.409)">
          <g id="Group_420" data-name="Group 420" transform="translate(6.993 1.816)">
            <path id="Path_613" data-name="Path 613" d="M391.949,647.479c.067-.186.145-.406.232-.657h-.687C391.726,647.174,391.887,647.4,391.949,647.479Z" transform="translate(-378.519 -608.492)" fill="none"/>
            <path id="Path_614" data-name="Path 614" d="M383.364,612.052a37.735,37.735,0,0,0,5.67,18.448h.687a62.028,62.028,0,0,0,3.151-19.232c.068-11.668-2.507-18.928-2.533-19a.714.714,0,0,1-.017-.134,14.463,14.463,0,0,0-2.88.623A37.613,37.613,0,0,0,383.364,612.052Z" transform="translate(-376.061 -592.045)" fill="#54ba82"/>
            <path id="Path_615" data-name="Path 615" d="M398.917,592.542a14.1,14.1,0,0,0-4.163-.533c.427,1.26,2.595,8.27,2.531,19.225a66.1,66.1,0,0,1-3.089,19.226h3.11a35.43,35.43,0,0,0,6.16-18.448A37.041,37.041,0,0,0,398.917,592.542Z" transform="translate(-379.332 -592.006)" fill="#54ba82"/>
            <path id="Path_616" data-name="Path 616" d="M411.777,606.954c-1.026-7.183-4.968-11.714-9.7-13.549,1.124,1.725,4.968,8.493,4.467,19.1a36.573,36.573,0,0,1-5.9,18.379h1.5S413.446,618.632,411.777,606.954Z" transform="translate(-381.273 -592.427)" fill="#54ba82"/>
            <path id="Path_617" data-name="Path 617" d="M382.92,593.718c-4.963,2.156-9.079,7.281-9.9,15.232-1.132,10.927,10.394,22.026,10.394,22.026h1.138a39.254,39.254,0,0,1-5.446-18.394C378.622,602.4,381.778,595.747,382.92,593.718Z" transform="translate(-372.939 -592.521)" fill="#54ba82"/>
            <path id="Path_618" data-name="Path 618" d="M382.872,612.316a37.661,37.661,0,0,1,4.079-19.3,14.488,14.488,0,0,0-1.4.508c-1.142,2.029-4.3,8.68-3.817,18.856a39.216,39.216,0,0,0,5.446,18.386h1.364A37.734,37.734,0,0,1,382.872,612.316Z" transform="translate(-375.569 -592.309)" fill="#335968"/>
            <path id="Path_619" data-name="Path 619" d="M401.477,593.183q-.6-.234-1.222-.411a37.04,37.04,0,0,1,4.549,19.471,35.429,35.429,0,0,1-6.16,18.448h1.4a36.645,36.645,0,0,0,5.9-18.394C406.444,601.693,402.6,594.909,401.477,593.183Z" transform="translate(-380.67 -592.237)" fill="#335968"/>
            <path id="Path_620" data-name="Path 620" d="M394.237,592.011c-.387.008-.774.031-1.16.071a.568.568,0,0,0,.017.117c.026.071,2.6,7.363,2.533,19.031a62.03,62.03,0,0,1-3.151,19.232h1.2a66.1,66.1,0,0,0,3.089-19.226C396.832,600.281,394.663,593.271,394.237,592.011Z" transform="translate(-378.815 -592.008)" fill="#335968"/>
          </g>
          <ellipse id="Ellipse_126" data-name="Ellipse 126" cx="2.36" cy="2.078" rx="2.36" ry="2.078" transform="matrix(0.961, -0.277, 0.277, 0.961, 35.483, 13.653)" fill="#54ba82"/>
          <g id="Group_421" data-name="Group 421" transform="translate(0 7.011)">
            <path id="Path_621" data-name="Path 621" d="M372.392,606.263a5.332,5.332,0,0,0-.682-4.321,4.853,4.853,0,0,0-6.585-1.86,4.148,4.148,0,0,0-1.487,1.658C364.737,603.37,367.294,606.018,372.392,606.263Z" transform="translate(-363.149 -599.435)" fill="#54ba82"/>
            <path id="Path_622" data-name="Path 622" d="M370.5,609.04a11.887,11.887,0,0,1-7.522-4.144,5.423,5.423,0,0,0,.833,3.582,4.854,4.854,0,0,0,6.585,1.861,4.1,4.1,0,0,0,1.2-1.175C371.219,609.133,370.852,609.094,370.5,609.04Z" transform="translate(-362.939 -601.077)" fill="#54ba82"/>
            <path id="Path_623" data-name="Path 623" d="M371.612,608.513a4.431,4.431,0,0,0,.587-1.258c-5.1-.245-7.655-2.893-8.753-4.522a4.671,4.671,0,0,0-.45,1.512,11.886,11.886,0,0,0,7.522,4.144C370.869,608.444,371.236,608.483,371.612,608.513Z" transform="translate(-362.956 -600.427)" fill="#335968"/>
          </g>
          <g id="Group_422" data-name="Group 422" transform="translate(32.065)">
            <path id="Path_624" data-name="Path 624" d="M414.153,589.668c-1.479-.784-3.577.276-4.688,2.368-.917,1.729-.871,3.618,0,4.667a15.436,15.436,0,0,0,5.291-6.55A2.195,2.195,0,0,0,414.153,589.668Z" transform="translate(-408.794 -589.409)" fill="#54ba82"/>
            <path id="Path_625" data-name="Path 625" d="M411.226,598.268c1.442.457,3.3-.59,4.323-2.517a5.129,5.129,0,0,0,.578-3.437A16.374,16.374,0,0,1,411.226,598.268Z" transform="translate(-409.526 -590.283)" fill="#54ba82"/>
            <path id="Path_626" data-name="Path 626" d="M415.051,590.473a15.437,15.437,0,0,1-5.291,6.55,2.208,2.208,0,0,0,.661.543,2.158,2.158,0,0,0,.364.148,16.375,16.375,0,0,0,4.9-5.954A2.827,2.827,0,0,0,415.051,590.473Z" transform="translate(-409.085 -589.729)" fill="#335968"/>
          </g>
        </g>
        <g id="Group_424" data-name="Group 424" transform="translate(372.32 629.349)">
          <path id="Path_627" data-name="Path 627" d="M397.935,672.928H385.864l-.831,2.1a.571.571,0,0,0,.531.781h12.672a.571.571,0,0,0,.53-.781Z" transform="translate(-378.953 -654.467)" fill="#244856"/>
          <path id="Path_628" data-name="Path 628" d="M399.492,647.1a1.036,1.036,0,0,0-.927-.571H380.039a1.034,1.034,0,0,0-.926.571,25.559,25.559,0,0,0-2.758,10.765c0,4.773,4.635,6.521,6.513,7.034a5.137,5.137,0,0,0,1.352.18h10.089a5.574,5.574,0,0,0,1.5-.2c1.923-.538,6.437-2.3,6.437-7.013A25.562,25.562,0,0,0,399.492,647.1Z" transform="translate(-376.355 -646.527)" fill="#335968"/>
        </g>
      </g>
    </g>
    <g id="Vector_Smart_Object3_copy_13" data-name="Vector Smart Object3 copy 13" transform="matrix(0.794, -0.608, 0.609, 0.793, 912.174, 703.505)">
      <g id="Group_35" data-name="Group 35" transform="translate(0)">
        <path id="Path_62" data-name="Path 62" d="M2.879,0,0,16.109,12.514,26.656l2.878-16.109Z" transform="translate(0 5.562)" fill="#70d19a"/>
        <path id="Path_63" data-name="Path 63" d="M0,5.562,15.392,0,27.906,10.546,12.514,16.108Z" transform="translate(2.879)" fill="#a7eac2"/>
        <path id="Path_64" data-name="Path 64" d="M0,21.672l15.393-5.563L18.27,0,2.878,5.562Z" transform="translate(12.514 10.546)" fill="#89e0ac"/>
      </g>
    </g>
    <g id="Vector_Smart_Object3_copy_13-2" data-name="Vector Smart Object3 copy 13" transform="matrix(-0.096, -0.995, 0.996, -0.095, 824.129, 740.161)">
      <g id="Group_35-2" data-name="Group 35" transform="translate(53.362 171.031)">
        <path id="Path_62-2" data-name="Path 62" d="M54.6,175.1l-1.237,6.925,5.38,4.534,1.237-6.925Z" transform="translate(-53.362 -172.709)" fill="#70d19a"/>
        <path id="Path_63-2" data-name="Path 63" d="M55.468,173.422l6.617-2.391,5.379,4.533-6.617,2.391Z" transform="translate(-54.231 -171.031)" fill="#a7eac2"/>
        <path id="Path_64-2" data-name="Path 64" d="M62.517,188.062l6.617-2.391,1.237-6.925-6.617,2.391Z" transform="translate(-57.137 -174.213)" fill="#89e0ac"/>
      </g>
    </g>
    <g id="Vector_Smart_Object3_copy_13-3" data-name="Vector Smart Object3 copy 13" transform="matrix(-0.973, -0.234, 0.234, -0.972, 368.383, 834.458)">
      <g id="Group_35-3" data-name="Group 35" transform="translate(53.362 171.031)">
        <path id="Path_62-3" data-name="Path 62" d="M54.848,175.1l-1.486,8.314,6.459,5.443,1.485-8.315Z" transform="translate(-53.362 -172.229)" fill="#70d19a"/>
        <path id="Path_63-3" data-name="Path 63" d="M55.468,173.9l7.944-2.871,6.459,5.443-7.944,2.871Z" transform="translate(-53.982 -171.031)" fill="#a7eac2"/>
        <path id="Path_64-3" data-name="Path 64" d="M62.517,189.932l7.945-2.871,1.485-8.314L64,181.617Z" transform="translate(-56.058 -173.303)" fill="#89e0ac"/>
      </g>
    </g>
  </g>
</svg>
