<?xml version="1.0" encoding="utf-8"?>
<!-- Generator: Adobe Illustrator 19.0.0, SVG Export Plug-In . SVG Version: 6.00 Build 0)  -->
<svg version="1.1" id="Layer_1" xmlns="http://www.w3.org/2000/svg" xmlns:xlink="http://www.w3.org/1999/xlink" x="0px" y="0px"
	 viewBox="0 0 300 318.5" style="enable-background:new 0 0 300 318.5;" xml:space="preserve">
<style type="text/css">
	.st0{fill:url(#XMLID_55_);}
	.st1{clip-path:url(#XMLID_56_);}
	.st2{fill:#377993;}
	.st3{fill:#F3FBFF;}
	.st4{fill:#D7EEF7;}
	.st5{fill:#123F49;}
	.st6{fill:#15424C;}
	.st7{fill:url(#XMLID_57_);}
	.st8{fill:#192E3F;}
	.st9{fill:#2F5568;}
	.st10{fill:#71D19A;}
	.st11{fill:#34485F;}
	.st12{fill:#54BA82;}
	.st13{fill:#253A4F;}
	.st14{fill:#274C63;}
</style>
<g id="XMLID_248_">
	<linearGradient id="XMLID_55_" gradientUnits="userSpaceOnUse" x1="150" y1="318.4825" x2="150" y2="18.4825">
		<stop  offset="0" style="stop-color:#5089A0"/>
		<stop  offset="1" style="stop-color:#71D19A"/>
	</linearGradient>
	<circle id="XMLID_221_" class="st0" cx="150" cy="168.5" r="150"/>
	<g id="XMLID_174_">
		<defs>
			<circle id="XMLID_175_" cx="150" cy="168.5" r="150"/>
		</defs>
		<clipPath id="XMLID_56_">
			<use xlink:href="#XMLID_175_"  style="overflow:visible;"/>
		</clipPath>
		<g id="XMLID_202_" class="st1">
			<circle id="XMLID_220_" class="st2" cx="133.1" cy="277.2" r="22.6"/>
			<circle id="XMLID_219_" class="st2" cx="160.5" cy="291.6" r="19.2"/>
			<circle id="XMLID_218_" class="st2" cx="189.3" cy="283.9" r="19.2"/>
			<circle id="XMLID_217_" class="st2" cx="198.5" cy="291.6" r="11.9"/>
			<circle id="XMLID_216_" class="st2" cx="211.5" cy="285.6" r="9.5"/>
			<circle id="XMLID_215_" class="st2" cx="210.1" cy="276.2" r="11.9"/>
			<circle id="XMLID_214_" class="st2" cx="227.5" cy="273.6" r="11.1"/>
			<ellipse id="XMLID_213_" class="st2" cx="242.7" cy="257.7" rx="17.3" ry="17.5"/>
			<ellipse id="XMLID_212_" class="st2" cx="257.7" cy="246.7" rx="8.4" ry="8.4"/>
			<circle id="XMLID_211_" class="st2" cx="275.2" cy="251" r="12.7"/>
			<circle id="XMLID_210_" class="st2" cx="116.5" cy="289.6" r="19.2"/>
			<circle id="XMLID_209_" class="st2" cx="72.5" cy="265.6" r="11.8"/>
			<circle id="XMLID_208_" class="st2" cx="91.5" cy="265.6" r="11.8"/>
			<circle id="XMLID_207_" class="st2" cx="49.5" cy="249.6" r="12.2"/>
			<circle id="XMLID_206_" class="st2" cx="33.6" cy="250.5" r="10.4"/>
			<circle id="XMLID_205_" class="st2" cx="106.4" cy="272.5" r="15"/>
			<circle id="XMLID_204_" class="st2" cx="62.5" cy="257.6" r="9.6"/>
			<circle id="XMLID_203_" class="st2" cx="88.5" cy="282.6" r="19.2"/>
		</g>
		<g id="XMLID_176_" class="st1">
			<circle id="XMLID_201_" class="st3" cx="167.2" cy="311.4" r="16.1"/>
			<circle id="XMLID_200_" class="st4" cx="192.3" cy="308.6" r="13.3"/>
			<g id="XMLID_178_">
				<circle id="XMLID_199_" class="st4" cx="131.2" cy="299.5" r="26.6"/>
				<circle id="XMLID_198_" class="st4" cx="222.6" cy="284.3" r="15.5"/>
				<circle id="XMLID_197_" class="st4" cx="233.1" cy="290.8" r="12"/>
				<circle id="XMLID_196_" class="st4" cx="161.5" cy="298.2" r="13.6"/>
				<circle id="XMLID_193_" class="st4" cx="243.1" cy="274.8" r="12"/>
				<circle id="XMLID_192_" class="st4" cx="257.9" cy="261" r="17.8"/>
				<circle id="XMLID_191_" class="st4" cx="214.5" cy="301.4" r="11.4"/>
				<circle id="XMLID_190_" class="st4" cx="202.8" cy="288.5" r="18.3"/>
				<circle id="XMLID_189_" class="st4" cx="181.8" cy="302.5" r="13.9"/>
				<circle id="XMLID_188_" class="st4" cx="208.4" cy="292.5" r="15.8"/>
				<circle id="XMLID_187_" class="st4" cx="36.4" cy="274.1" r="19.1"/>
				<circle id="XMLID_185_" class="st4" cx="107.5" cy="279.2" r="12.9"/>
				<circle id="XMLID_184_" class="st4" cx="59.1" cy="263.6" r="11.3"/>
				<circle id="XMLID_183_" class="st3" cx="91.3" cy="311.4" r="13.4"/>
				<ellipse id="XMLID_182_" class="st4" cx="99.4" cy="306.3" rx="14.3" ry="15.5"/>
				<ellipse id="XMLID_181_" class="st4" cx="80.4" cy="299.3" rx="14.3" ry="15.5"/>
				<circle id="XMLID_180_" class="st4" cx="85" cy="269.6" r="22.7"/>
				<circle id="XMLID_179_" class="st4" cx="63.4" cy="288.3" r="19.3"/>
			</g>
			<path id="XMLID_177_" class="st4" d="M162.7,285.8c-7.1-28.4-9.2-100.3-9.2-100.3h-4.3h-2.4h-4.3c0,0-2.1,71.9-9.2,100.3
				c-9.1,36.1-36.2,38.7-36.2,38.7h49.7h2.4h49.7C198.9,324.5,171.8,321.9,162.7,285.8z"/>
		</g>
	</g>
	
		<image style="overflow:visible;" width="63" height="216" id="XMLID_173_" xlink:href="22C4288B.png"  transform="matrix(1 0 0 1 116 -0.5175)">
	</image>
	<path id="XMLID_172_" class="st5" d="M148.1,229.2l3.5-30.5l-4.1-25.3c-0.1-0.4-0.5-0.4-0.6,0l-4.1,25.3l3.5,30.5
		c0,0.4,0.4,0.8,0.7,0.8h0.3C147.7,229.9,148,229.6,148.1,229.2z"/>
	
		<image style="overflow:visible;" width="22" height="52" id="XMLID_171_" xlink:href="22C42889.png"  transform="matrix(1 0 0 1 154 172.4825)">
	</image>
	<path id="XMLID_96_" class="st6" d="M119.1,198.2l9.6-24.9c0.2-0.4,0.9-0.4,1,0l10.4,41.6l-4.8,8.8c-0.4,0.7-1.4,0.7-1.8,0
		l-14.2-24.8C119.1,198.7,119,198.4,119.1,198.2z"/>
	<circle id="XMLID_222_" class="st4" cx="39.4" cy="275.1" r="19.1"/>
	<circle id="XMLID_224_" class="st4" cx="62.4" cy="277.1" r="15"/>
	<circle id="XMLID_225_" class="st4" cx="77.4" cy="294.1" r="15"/>
	<circle id="XMLID_223_" class="st4" cx="95.4" cy="287.1" r="15"/>
	<circle id="XMLID_226_" class="st4" cx="260.7" cy="262.3" r="16.3"/>
	<circle id="XMLID_227_" class="st4" cx="243.9" cy="281.1" r="13"/>
	<circle id="XMLID_228_" class="st4" cx="277.5" cy="261.6" r="10.4"/>
	<g id="XMLID_92_">
		<linearGradient id="XMLID_57_" gradientUnits="userSpaceOnUse" x1="162.2288" y1="89.9675" x2="132.7712" y2="60.5098">
			<stop  offset="0" style="stop-color:#A4CBE0"/>
			<stop  offset="1" style="stop-color:#D7EEF7"/>
		</linearGradient>
		<circle id="XMLID_13_" class="st7" cx="147.5" cy="75.2" r="20.8"/>
		<g id="XMLID_186_">
			<g id="XMLID_237_">
				<g id="XMLID_240_">
					<polygon id="XMLID_244_" class="st8" points="147.6,84.9 147.6,79.4 144.3,71.4 142.9,77.3 					"/>
					<polygon id="XMLID_243_" class="st9" points="140.6,66.2 142.9,77.3 144.3,71.4 					"/>
					<polygon id="XMLID_242_" class="st10" points="142.9,77.3 140.6,66.2 133.1,66.5 132.1,70 136.8,71.2 134.2,74.7 					"/>
					<polygon id="XMLID_241_" class="st11" points="135.9,72.6 132.1,70 136.8,71.2 					"/>
				</g>
				<polygon id="XMLID_239_" class="st12" points="142.9,77.3 134.2,74.7 147.6,90.5 147.6,84.9 				"/>
			</g>
			<g id="XMLID_229_">
				<g id="XMLID_231_">
					<polygon id="XMLID_235_" class="st13" points="147.6,84.9 147.6,79.4 150.9,71.4 152.3,77.3 					"/>
					<polygon id="XMLID_234_" class="st14" points="154.4,66.2 152.3,77.3 150.9,71.4 					"/>
					<polygon id="XMLID_233_" class="st10" points="152.3,77.3 154.4,66.2 162.2,66.5 162.9,70 158.4,71.2 160.8,74.7 					"/>
					<polygon id="XMLID_232_" class="st11" points="159.3,72.6 162.9,70 158.4,71.2 					"/>
				</g>
				<polygon id="XMLID_230_" class="st12" points="152.3,77.3 160.8,74.7 147.6,90.5 147.6,84.9 				"/>
			</g>
		</g>
	</g>
</g>
</svg>
