<svg xmlns="http://www.w3.org/2000/svg" width="763.728" height="79" viewBox="0 0 763.728 79">
  <g id="Group_625" data-name="Group 625" transform="translate(-327.814 -415)">
    <path id="Path_877" data-name="Path 877" d="M12264.326,126s-12.725,43.538,35.631,53,171.783-13.882,209.959-22.716,117.066-10.1,192.143,22.716,198.506,33.442,251.951,8.2S13026.541,126,13026.541,126Z" transform="translate(-11934.999 289)" fill="#f4fafe"/>
    <g id="Vector_Smart_Object3_copy_13" data-name="Vector Smart Object3 copy 13" transform="matrix(0.75, -0.662, 0.663, 0.749, 421.24, 454.741)">
      <g id="Group_35" data-name="Group 35" transform="translate(0 0)">
        <path id="Path_62" data-name="Path 62" d="M3,0,0,16.787,13.042,27.778l3-16.788Z" transform="translate(0 5.797)" fill="#70d19a"/>
        <path id="Path_63" data-name="Path 63" d="M0,5.8,16.041,0,29.081,10.99l-16.041,5.8Z" transform="translate(3 0)" fill="#a7eac2"/>
        <path id="Path_64" data-name="Path 64" d="M0,22.584l16.041-5.8L19.04,0,3,5.8Z" transform="translate(13.042 10.99)" fill="#89e0ac"/>
      </g>
    </g>
    <g id="Vector_Smart_Object3_copy_13-2" data-name="Vector Smart Object3 copy 13" transform="matrix(-0.096, -0.995, 0.996, -0.095, 637.129, 563.161)">
      <g id="Group_35-2" data-name="Group 35" transform="translate(53.362 171.031)">
        <path id="Path_62-2" data-name="Path 62" d="M55.3,175.1l-1.936,10.835,8.418,7.094,1.936-10.836Z" transform="translate(-53.362 -171.359)" fill="#70d19a"/>
        <path id="Path_63-2" data-name="Path 63" d="M55.468,174.773l10.353-3.741,8.417,7.094-10.353,3.741Z" transform="translate(-53.532 -171.031)" fill="#a7eac2"/>
        <path id="Path_64-2" data-name="Path 64" d="M62.517,193.323l10.354-3.742,1.936-10.835-10.353,3.741Z" transform="translate(-54.099 -171.652)" fill="#89e0ac"/>
      </g>
    </g>
    <g id="Vector_Smart_Object3_copy_13-3" data-name="Vector Smart Object3 copy 13" transform="matrix(0.044, -0.998, 1, 0.044, 836.922, 523.678)">
      <g id="Group_35-3" data-name="Group 35" transform="translate(53.362 171.031)">
        <path id="Path_62-3" data-name="Path 62" d="M57.132,175.1l-3.77,21.093L69.749,210l3.769-21.094Z" transform="translate(-53.362 -167.817)" fill="#70d19a"/>
        <path id="Path_63-3" data-name="Path 63" d="M55.468,178.315l20.155-7.283,16.386,13.809-20.155,7.283Z" transform="translate(-51.699 -171.031)" fill="#a7eac2"/>
        <path id="Path_64-3" data-name="Path 64" d="M62.517,207.123l20.155-7.284,3.768-21.093L66.285,186.03Z" transform="translate(-46.13 -164.937)" fill="#89e0ac"/>
      </g>
    </g>
  </g>
</svg>
