<svg xmlns="http://www.w3.org/2000/svg" width="652.41" height="257.522" viewBox="0 0 652.41 257.522">
    <defs>
        <style>
            .cls-1{fill:#f4fafe}.cls-2{fill:#70d19a}.cls-3{fill:#a7eac2}.cls-4{fill:#89e0ac}.cls-5{fill:#71d19a}.cls-6{fill:#244856}.cls-7{fill:#54ba82}.cls-8{fill:#335968}.cls-9{fill:none}
        </style>
    </defs>
    <g id="Group_617" data-name="Group 617" transform="translate(-203 -728.1)">
        <path id="Path_878" d="M12893 251.2s2-54.2-42-90.2-93-17.2-166 19-81-62.6-217-12.8-161.789-46.2-205.189-6.2-9.811 90.2-9.811 90.2z" class="cls-1" data-name="Path 878" transform="translate(-12037.607 734.354)"/>
        <g id="Vector_Smart_Object3_copy_13" data-name="Vector Smart Object3 copy 13" transform="rotate(-95.5 661.584 147.705) skewX(-.06)">
            <g id="Group_35" data-name="Group 35" transform="translate(53.362 171.031)">
                <path id="Path_62" d="M55.3 175.1l-1.936 10.835 8.418 7.094 1.936-10.836z" class="cls-2" data-name="Path 62" transform="translate(-53.362 -171.359)"/>
                <path id="Path_63" d="M55.468 174.773l10.353-3.741 8.417 7.094-10.353 3.741z" class="cls-3" data-name="Path 63" transform="translate(-53.532 -171.031)"/>
                <path id="Path_64" d="M62.517 193.323l10.354-3.742 1.936-10.835-10.353 3.741z" class="cls-4" data-name="Path 64" transform="translate(-54.099 -171.652)"/>
            </g>
        </g>
        <g id="Vector_Smart_Object3_copy_13-2" data-name="Vector Smart Object3 copy 13" transform="matrix(.044 -.998 1 .044 621.922 854.679)">
            <g id="Group_35-2" data-name="Group 35" transform="translate(53.362 171.031)">
                <path id="Path_62-2" d="M57.132 175.1l-3.77 21.093L69.749 210l3.769-21.094z" class="cls-2" data-name="Path 62" transform="translate(-53.362 -167.817)"/>
                <path id="Path_63-2" d="M55.468 178.315l20.155-7.283 16.386 13.809-20.155 7.283z" class="cls-3" data-name="Path 63" transform="translate(-51.699 -171.031)"/>
                <path id="Path_64-2" d="M62.517 207.123l20.155-7.284 3.768-21.093-20.155 7.284z" class="cls-4" data-name="Path 64" transform="translate(-46.13 -164.937)"/>
            </g>
        </g>
        <g id="Group_571" data-name="Group 571" transform="translate(458.087 175.65)">
            <g id="Group_568" data-name="Group 568" transform="translate(140.27 649.917)">
                <g id="Group_562" data-name="Group 562" transform="translate(0 14.832)">
                    <path id="Path_879" d="M142.542 666.23c8.729-10.993 23.1 8.635 18.221 14.86-3.9 4.974-27.871-2.708-18.221-14.86z" class="cls-5" data-name="Path 879" transform="translate(-140.27 -662.948)"/>
                    <ellipse id="Ellipse_139" cx=".618" cy="1.189" class="cls-6" data-name="Ellipse 139" rx=".618" ry="1.189" transform="rotate(-50.195 12.31 -8.202)"/>
                    <ellipse id="Ellipse_140" cx=".539" cy="1.036" class="cls-6" data-name="Ellipse 140" rx=".539" ry="1.036" transform="rotate(-39.742 20.557 -14.792)"/>
                    <ellipse id="Ellipse_141" cx=".744" cy="1.431" class="cls-6" data-name="Ellipse 141" rx=".744" ry="1.431" transform="rotate(-77.06 13.065 1.717)"/>
                    <ellipse id="Ellipse_142" cx=".744" cy="1.431" class="cls-6" data-name="Ellipse 142" rx=".744" ry="1.431" transform="rotate(-60.21 7.773 .051)"/>
                </g>
                <g id="Group_563" data-name="Group 563" transform="translate(73.204 .012)">
                    <path id="Path_880" d="M204.586 674.291s14.283-35.2 27.437-20.979c12.924 13.975-22.966 25.246-22.966 25.246z" class="cls-5" data-name="Path 880" transform="translate(-204.586 -649.927)"/>
                    <ellipse id="Ellipse_143" cx="1.366" cy=".71" class="cls-6" data-name="Ellipse 143" rx="1.366" ry=".71" transform="rotate(-60.731 20.167 4.451)"/>
                    <ellipse id="Ellipse_144" cx="1.366" cy=".71" class="cls-6" data-name="Ellipse 144" rx="1.366" ry=".71" transform="rotate(-42.371 31.486 -15.61)"/>
                    <ellipse id="Ellipse_145" cx="1.366" cy=".71" class="cls-6" data-name="Ellipse 145" rx="1.366" ry=".71" transform="rotate(-53.089 16.6 -6.733)"/>
                    <ellipse id="Ellipse_146" cx="1.366" cy=".71" class="cls-6" data-name="Ellipse 146" rx="1.366" ry=".71" transform="rotate(-28.72 30.45 -38.174)"/>
                </g>
                <g id="Group_564" data-name="Group 564" transform="translate(63.124)">
                    <path id="Path_881" d="M198.225 668.728s-7.881-18.821 4.368-18.811c13.856.011 0 27.437 0 27.437z" class="cls-5" data-name="Path 881" transform="translate(-195.73 -649.917)"/>
                    <ellipse id="Ellipse_147" cx="1.366" cy=".71" class="cls-6" data-name="Ellipse 147" rx="1.366" ry=".71" transform="rotate(-80.211 9.147 -.164)"/>
                    <ellipse id="Ellipse_148" cx=".71" cy="1.366" class="cls-6" data-name="Ellipse 148" rx=".71" ry="1.366" transform="rotate(-16.8 34.706 -1.521)"/>
                    <ellipse id="Ellipse_149" cx="1.092" cy=".568" class="cls-6" data-name="Ellipse 149" rx="1.092" ry=".568" transform="rotate(-75.46 14.048 2.806)"/>
                    <ellipse id="Ellipse_150" cx=".71" cy="1.366" class="cls-6" data-name="Ellipse 150" rx=".71" ry="1.366" transform="rotate(-5.702 31.833 -42.992)"/>
                </g>
                <g id="Group_565" data-name="Group 565" transform="translate(50.872 19.259)">
                    <path id="Path_882" d="M185.231 715.972c-.428-1.83-2.976-58.493 23.084-47.789S191.02 718.35 191.02 718.35z" class="cls-7" data-name="Path 882" transform="translate(-184.965 -666.838)"/>
                    <ellipse id="Ellipse_151" cx="2.371" cy="1.233" class="cls-6" data-name="Ellipse 151" rx="2.371" ry="1.233" transform="rotate(-79.92 20.434 12.857)"/>
                    <ellipse id="Ellipse_152" cx="2.371" cy="1.233" class="cls-6" data-name="Ellipse 152" rx="2.371" ry="1.233" transform="rotate(-48.938 41.665 -2.071)"/>
                    <ellipse id="Ellipse_153" cx="2.371" cy="1.233" class="cls-6" data-name="Ellipse 153" rx="2.371" ry="1.233" transform="rotate(-70.97 18.154 2.807)"/>
                    <ellipse id="Ellipse_154" cx="2.371" cy="1.233" class="cls-6" data-name="Ellipse 154" rx="2.371" ry="1.233" transform="rotate(-56.998 25.248 -10.822)"/>
                </g>
                <g id="Group_566" data-name="Group 566" transform="translate(13.962 24.914)">
                    <path id="Path_883" d="M179.716 718.132s-44.337-30.549-19.754-44.028c25.246-13.84 27.366 39.365 27.366 39.365z" class="cls-7" data-name="Path 883" transform="translate(-152.537 -671.806)"/>
                    <ellipse id="Ellipse_155" cx="1.233" cy="2.371" class="cls-6" data-name="Ellipse 155" rx="1.233" ry="2.371" transform="rotate(-14.542 103.517 -86.402)"/>
                    <ellipse id="Ellipse_156" cx="1.233" cy="2.371" class="cls-6" data-name="Ellipse 156" rx="1.233" ry="2.371" transform="rotate(-39.314 53.154 -6.862)"/>
                    <ellipse id="Ellipse_157" cx="1.233" cy="2.371" class="cls-6" data-name="Ellipse 157" rx="1.233" ry="2.371" transform="rotate(-31.641 47.187 -13.818)"/>
                    <ellipse id="Ellipse_158" cx="1.233" cy="2.371" class="cls-6" data-name="Ellipse 158" rx="1.233" ry="2.371" transform="rotate(-22.7 30.627 -40.276)"/>
                    <ellipse id="Ellipse_159" cx="1.233" cy="2.371" class="cls-6" data-name="Ellipse 159" rx="1.233" ry="2.371" transform="rotate(-52.97 16.418 3.573)"/>
                </g>
                <g id="Group_567" data-name="Group 567" transform="translate(29.486 60.082)">
                    <path id="Path_884" d="M181.075 760.564c-1.551-2.276-35.483-57.86 4.539-57.86s4.35 57.86 4.35 57.86z" class="cls-7" data-name="Path 884" transform="translate(-166.176 -702.704)"/>
                    <ellipse id="Ellipse_160" cx="1.233" cy="2.371" class="cls-6" data-name="Ellipse 160" rx="1.233" ry="2.371" transform="translate(5.491 19.54)"/>
                    <ellipse id="Ellipse_161" cx="1.233" cy="2.371" class="cls-6" data-name="Ellipse 161" rx="1.233" ry="2.371" transform="translate(11.182 11.573)"/>
                    <ellipse id="Ellipse_162" cx="1.233" cy="2.371" class="cls-6" data-name="Ellipse 162" rx="1.233" ry="2.371" transform="translate(13.458 22.955)"/>
                    <ellipse id="Ellipse_163" cx="1.233" cy="2.371" class="cls-6" data-name="Ellipse 163" rx="1.233" ry="2.371" transform="translate(11.182 35.475)"/>
                    <ellipse id="Ellipse_164" cx="1.233" cy="2.371" class="cls-6" data-name="Ellipse 164" rx="1.233" ry="2.371" transform="translate(24.84 5.882)"/>
                    <ellipse id="Ellipse_165" cx="1.233" cy="2.371" class="cls-6" data-name="Ellipse 165" rx="1.233" ry="2.371" transform="translate(30.531 17.264)"/>
                    <ellipse id="Ellipse_166" cx="1.233" cy="2.371" class="cls-6" data-name="Ellipse 166" rx="1.233" ry="2.371" transform="translate(21.426 32.06)"/>
                </g>
            </g>
            <g id="Group_570" data-name="Group 570" transform="translate(153.33 755.845)">
                <g id="Group_569" data-name="Group 569" transform="translate(0 5.184)">
                    <path id="Path_885" d="M204.351 796.481a11.383 11.383 0 0 0 6.358-1.934c8.79-5.92 14.462-15.242 14.462-25.857a30.158 30.158 0 0 0-8.895-21.151h-55.637a30.158 30.158 0 0 0-8.895 21.151c0 10.616 5.672 19.938 14.462 25.857a11.383 11.383 0 0 0 6.358 1.934z" class="cls-8" data-name="Path 885" transform="translate(-151.744 -747.539)"/>
                </g>
                <path id="Path_886" d="M222.078 748.168c0 2.863-1.617 5.183-3.613 5.183H157.78c-2 0-3.613-2.321-3.613-5.183 0-2.864 1.617-5.184 3.613-5.184h60.686c2 0 3.613 2.321 3.613 5.184z" class="cls-6" data-name="Path 886" transform="translate(-151.409 -742.984)"/>
            </g>
        </g>
        <g id="Group_425" data-name="Group 425" transform="translate(-111.818 190.328)">
            <g id="Group_423" data-name="Group 423" transform="translate(362.939 589.409)">
                <g id="Group_420" data-name="Group 420" transform="translate(8.775 2.279)">
                    <path id="Path_613" d="M392.065 647.646c.084-.233.182-.509.291-.824h-.863c.292.441.495.72.572.824z" class="cls-9" data-name="Path 613" transform="translate(-375.212 -598.722)"/>
                    <path id="Path_614" d="M383.376 617.128a47.353 47.353 0 0 0 7.116 23.15h.862a77.838 77.838 0 0 0 3.954-24.134c.085-14.642-3.146-23.753-3.178-23.842a.9.9 0 0 1-.022-.168 18.151 18.151 0 0 0-3.613.782 47.2 47.2 0 0 0-5.119 24.212z" class="cls-7" data-name="Path 614" transform="translate(-374.211 -592.022)"/>
                    <path id="Path_615" d="M400.121 592.679a17.7 17.7 0 0 0-5.225-.669c.535 1.581 3.256 10.378 3.177 24.126a82.952 82.952 0 0 1-3.877 24.126h3.9a44.46 44.46 0 0 0 7.73-23.15 46.482 46.482 0 0 0-5.705-24.433z" class="cls-7" data-name="Path 615" transform="translate(-375.543 -592.006)"/>
                    <path id="Path_616" d="M414.613 610.408c-1.287-9.013-6.235-14.7-12.168-17 1.411 2.165 6.234 10.658 5.605 23.966a45.9 45.9 0 0 1-7.4 23.063h1.882s14.174-15.375 12.081-30.029z" class="cls-7" data-name="Path 616" transform="translate(-376.334 -592.178)"/>
                    <path id="Path_617" d="M385.464 593.718c-6.228 2.705-11.393 9.136-12.427 19.114-1.421 13.712 13.043 27.64 13.043 27.64h1.428a49.259 49.259 0 0 1-6.834-23.082c-.604-12.771 3.357-21.126 4.79-23.672z" class="cls-7" data-name="Path 617" transform="translate(-372.939 -592.216)"/>
                    <path id="Path_618" d="M383.176 617.236a47.259 47.259 0 0 1 5.118-24.222 18.165 18.165 0 0 0-1.759.637c-1.433 2.546-5.394 10.892-4.79 23.662a49.211 49.211 0 0 0 6.834 23.073h1.712a47.351 47.351 0 0 1-7.115-23.15z" class="cls-8" data-name="Path 618" transform="translate(-374.01 -592.13)"/>
                    <path id="Path_619" d="M402.2 593.288q-.757-.294-1.533-.515a46.481 46.481 0 0 1 5.708 24.434 44.459 44.459 0 0 1-7.73 23.15h1.762a45.985 45.985 0 0 0 7.4-23.082c.625-13.309-4.197-21.821-5.607-23.987z" class="cls-8" data-name="Path 619" transform="translate(-376.088 -592.1)"/>
                    <path id="Path_620" d="M394.686 592.011a18.2 18.2 0 0 0-1.456.089.709.709 0 0 0 .022.147c.033.089 3.263 9.24 3.178 23.882a77.84 77.84 0 0 1-3.954 24.134h1.509a82.947 82.947 0 0 0 3.877-24.126c.08-13.748-2.641-22.545-3.176-24.126z" class="cls-8" data-name="Path 620" transform="translate(-375.333 -592.007)"/>
                </g>
                <ellipse id="Ellipse_126" cx="2.961" cy="2.608" class="cls-7" data-name="Ellipse 126" rx="2.961" ry="2.608" transform="rotate(-16.05 82.842 -149.084)"/>
                <g id="Group_421" data-name="Group 421" transform="translate(0 8.797)">
                    <path id="Path_621" d="M374.623 608a6.69 6.69 0 0 0-.855-5.422c-1.9-2.985-5.6-4.03-8.263-2.334a5.2 5.2 0 0 0-1.866 2.081c1.378 2.048 4.587 5.375 10.984 5.675z" class="cls-7" data-name="Path 621" transform="translate(-363.025 -599.435)"/>
                    <path id="Path_622" d="M372.428 610.1a14.916 14.916 0 0 1-9.439-5.2 6.805 6.805 0 0 0 1.045 4.494c1.9 2.985 5.6 4.03 8.263 2.335a5.148 5.148 0 0 0 1.5-1.474 24.438 24.438 0 0 1-1.369-.155z" class="cls-7" data-name="Path 622" transform="translate(-362.939 -600.104)"/>
                    <path id="Path_623" d="M373.808 609.986a5.561 5.561 0 0 0 .736-1.579c-6.4-.307-9.606-3.63-10.984-5.675a5.863 5.863 0 0 0-.564 1.9 14.916 14.916 0 0 0 9.439 5.2c.441.068.901.117 1.373.154z" class="cls-8" data-name="Path 623" transform="translate(-362.946 -599.839)"/>
                </g>
                <g id="Group_422" data-name="Group 422" transform="translate(40.237)">
                    <path id="Path_624" d="M415.518 589.734c-1.856-.984-4.489.346-5.883 2.972-1.151 2.169-1.093 4.54.006 5.856a19.37 19.37 0 0 0 6.64-8.219 2.754 2.754 0 0 0-.763-.609z" class="cls-7" data-name="Path 624" transform="translate(-408.794 -589.409)"/>
                    <path id="Path_625" d="M411.226 599.786c1.809.574 4.143-.741 5.425-3.158a6.436 6.436 0 0 0 .726-4.313 20.548 20.548 0 0 1-6.151 7.471z" class="cls-7" data-name="Path 625" transform="translate(-409.092 -589.765)"/>
                    <path id="Path_626" d="M416.4 590.473a19.371 19.371 0 0 1-6.64 8.219 2.771 2.771 0 0 0 .829.682 2.708 2.708 0 0 0 .457.186 20.549 20.549 0 0 0 6.151-7.471 3.547 3.547 0 0 0-.797-1.616z" class="cls-8" data-name="Path 626" transform="translate(-408.913 -589.539)"/>
                </g>
            </g>
            <g id="Group_424" data-name="Group 424" transform="translate(374.711 639.529)">
                <path id="Path_627" d="M401.234 672.928h-15.148l-1.042 2.63a.716.716 0 0 0 .666.98h15.9a.716.716 0 0 0 .665-.98z" class="cls-6" data-name="Path 627" transform="translate(-377.413 -649.762)"/>
                <path id="Path_628" d="M405.389 647.244a1.3 1.3 0 0 0-1.163-.717h-23.248a1.3 1.3 0 0 0-1.162.717 32.074 32.074 0 0 0-3.461 13.509c0 5.99 5.817 8.183 8.173 8.827a6.446 6.446 0 0 0 1.7.226h12.66a6.993 6.993 0 0 0 1.887-.253c2.413-.675 8.078-2.89 8.078-8.8a32.077 32.077 0 0 0-3.464-13.509z" class="cls-8" data-name="Path 628" transform="translate(-376.355 -646.527)"/>
            </g>
        </g>
    </g>
</svg>
