<svg xmlns="http://www.w3.org/2000/svg" width="286.875" height="106.107" viewBox="0 0 286.875 106.107">
    <defs>
        <style>
            .cls-1{fill:#335968}.cls-2{fill:#42647a}.cls-3{fill:#244856}.cls-4{fill:#274f5e}.cls-5{fill:#54ba82}.cls-6{fill:#2f5568}
        </style>
    </defs>
    <g id="Group_606" data-name="Group 606" transform="translate(-1120.6 -500.393)">
        <g id="Group_596" data-name="Group 596" transform="translate(522.207 190.461)">
            <rect id="Rectangle_917" width="93.22" height="58.271" class="cls-1" data-name="Rectangle 917" rx="1" transform="translate(708.793 340.539)"/>
            <path id="Path_941" d="M755.4 398.809h-45.469l44.849-35.753a1 1 0 0 1 1.247 0l44.848 35.753z" class="cls-2" data-name="Path 941"/>
            <path id="Path_942" d="M755.4 340.539h-45.469l44.849 35.753a1 1 0 0 0 1.247 0l44.848-35.753z" class="cls-3" data-name="Path 942"/>
        </g>
        <g id="Group_600" data-name="Group 600" transform="rotate(-7 3361.72 -6306.092)">
            <g id="Group_598" data-name="Group 598" transform="translate(520.183 243.502)">
                <g id="Group_597" data-name="Group 597" transform="translate(1.817)">
                    <path id="Path_943" d="M537.046 243.688a1.52 1.52 0 0 0-2.183.9l-4.737 12.28 9.3-9.789a1.52 1.52 0 0 0-.424-2.331z" class="cls-1" data-name="Path 943" transform="translate(-530.126 -243.502)"/>
                    <path id="Path_944" d="M544.73 256.061a1.52 1.52 0 0 1-.978 2.151l-12.434 4.317 10.1-8.965a1.52 1.52 0 0 1 2.314.5z" class="cls-1" data-name="Path 944" transform="translate(-530.747 -248.568)"/>
                </g>
                <path id="Path_945" d="M539.1 245.348a2.1 2.1 0 0 0-3.252.286l-9.512 14.122 14.5-8.948a2.1 2.1 0 0 0 .407-3.246z" class="cls-4" data-name="Path 945" transform="translate(-526.333 -244.13)"/>
                <path id="Path_946" d="M531.357 265.163l-1.452-1.5a.8.8 0 0 0-1.321.319l-1.7 4.753.427.345.24.345 4.749-1.625a.8.8 0 0 0 .349-1.306z" class="cls-5" data-name="Path 946" transform="translate(-526.618 -253.885)"/>
            </g>
            <g id="Group_599" data-name="Group 599" transform="translate(514.529 254.906)">
                <path id="Path_947" d="M514.717 274.943l-.188-1.781.11-.015c.2-.023 4.833-.6 8.021-5.834l1.53.931a13.616 13.616 0 0 1-9.473 6.699z" class="cls-5" data-name="Path 947" transform="translate(-514.529 -267.312)"/>
            </g>
        </g>
        <g id="Group_601" data-name="Group 601" transform="translate(1164.675 500.393)">
            <path id="Path_948" d="M372.912 186.063l4.187-2.089a39.464 39.464 0 0 1 6.473 8.636l-2.176 1.71 2.646-1.052a40.308 40.308 0 0 1 2.559 4.683 9.03 9.03 0 0 1 .989 2.543l-2.234 1.5 2.438-.886 3.888 6.98-7.81-.5.34-2.114-1.065 1.977a59.784 59.784 0 0 1-8.434-2.806l.664-2.142-1.239 1.961-3.3-1.823 1.852-4.679-2.981 4.1s-6.68-4.523-9.756-9.4l1.63-3.6-2.47 2.938a22.7 22.7 0 0 1-4.371-7.852 25.963 25.963 0 0 1-.855-8c-1.469-1.641-8.082-9.2-8.082-9.2-.59-.617.1-1.755.439-1.35.247.294 6.678 8.179 8.164 10.009a18.478 18.478 0 0 1 6.978-.1l-1.874 2.3a32.822 32.822 0 0 0 2.883-2.014l2.22.466-1.576 1.653a11.322 11.322 0 0 1 2.449-1.361 30.841 30.841 0 0 1 10.882 6.75z" class="cls-6" data-name="Path 948" transform="translate(-345.574 -165.519)"/>
            <path id="Path_949" d="M395.266 198.844s-.521-.4-1.445-1.089c-.46-.346-1.032-.749-1.662-1.243s-1.333-1.061-2.11-1.662-1.586-1.3-2.465-2-1.769-1.5-2.714-2.282-1.881-1.647-2.861-2.488-1.937-1.74-2.914-2.614l-2.881-2.652c-.93-.9-1.876-1.747-2.758-2.606l-2.557-2.46-2.277-2.221c-1.4-1.385-2.58-2.531-3.385-3.353l-1.276-1.282.3.365c.2.237.481.59.86 1.024.754.871 1.825 2.12 3.164 3.571.669.726 1.393 1.513 2.181 2.325s1.613 1.674 2.487 2.546 1.785 1.764 2.718 2.665 1.9 1.792 2.873 2.682c.988.872 1.955 1.766 2.945 2.6s1.952 1.676 2.919 2.446 1.884 1.534 2.8 2.207 1.749 1.338 2.563 1.9 1.556 1.083 2.218 1.536 1.262.812 1.744 1.126c.967.615 1.533.959 1.533.959z" class="cls-5" data-name="Path 949" transform="translate(-353.811 -159.236)"/>
        </g>
        <g id="Group_602" data-name="Group 602" transform="translate(766.179 257.197)">
            <path id="Path_950" d="M568.918 342.717l-4.033-9.671 4.979 8.87a66.284 66.284 0 0 0 5.57-6.442l-2.649-6.2 3.33 5.457c.8-1.337 2.913-4.166 3.5-5.371l-1.653-3.286 2.1 2.371a33.39 33.39 0 0 0 3.218-8.707 44.892 44.892 0 0 0-6.966-3.141l.11 2.4-.844-2.612a49.02 49.02 0 0 0-4.207-1.158l.724 5.123-1.676-5.489a46.514 46.514 0 0 0-10.056-.718c.153 2.5 2.177 9.061 2.177 9.061l-3.815-8.942a36.186 36.186 0 0 0-8.684 2.126c-10.305 4.4-13.806 11.479-13.806 11.479l2.086 5.093-2.71-4.081s-2 5.758.284 11.1c0 0 .119.376.38.967l-13.912 7.665c.494 1.155 1.805.506 1.805.506l12.557-7.239a12.816 12.816 0 0 0 5.981 5.882c3.45 1.508 6.668 1.645 11.969 1.038.393-.045-2.542-5.949-2.542-5.949s3.518 5.625 3.935 5.543a33.741 33.741 0 0 0 6.751-2.1 26.941 26.941 0 0 0 6.097-3.575z" class="cls-5" data-name="Path 950"/>
            <path id="Path_951" d="M584.744 327.092l-1.635.659c-1.042.412-2.517 1.032-4.288 1.77l-2.854 1.2-3.173 1.364-3.378 1.488c-1.152.5-2.315 1.029-3.472 1.569-2.329 1.046-4.632 2.15-6.792 3.184-1.083.512-2.116 1.034-3.1 1.515s-1.916.945-2.769 1.383l-2.342 1.172-1.792.932c-1 .514-1.575.795-1.575.795s.528-.364 1.467-.978l1.7-1.1a83.48 83.48 0 0 1 2.241-1.368l1.289-.771 1.4-.783c.966-.533 1.974-1.115 3.05-1.654s2.163-1.144 3.309-1.677 2.291-1.113 3.461-1.64 2.343-1.049 3.506-1.543c1.156-.51 2.317-.955 3.432-1.407s2.209-.848 3.242-1.233 2.018-.727 2.932-1.028c1.82-.625 3.366-1.062 4.44-1.385s1.701-.464 1.701-.464z" class="cls-6" data-name="Path 951" transform="translate(-8.331 -4.286)"/>
        </g>
        <g id="Group_603" data-name="Group 603" transform="rotate(-43 1230.64 -1020.187)">
            <path id="Path_952" d="M283.047 201.108s9.258 12.657 11.6 21.872-.544 18.873-.544 18.873a129.644 129.644 0 0 0-5.691-12.152c-3.3-5.738-4.118-9.923-5.183-15.761a49.5 49.5 0 0 1-.182-12.832z" class="cls-6" data-name="Path 952"/>
            <path id="Path_953" d="M287.964 217.128s.155.324.4.9.609 1.4.994 2.4.846 2.171 1.288 3.44.895 2.628 1.321 4c.2.688.4 1.376.6 2.053s.362 1.354.538 2c.336 1.3.585 2.536.8 3.59.115.525.18 1.017.249 1.449s.119.81.155 1.122l.1.982-.252-.954c-.073-.3-.166-.672-.289-1.091l-.392-1.408c-.28-1.033-.655-2.225-1.035-3.508l-1.223-4.011-1.227-4.013-1.051-3.51c-.317-1.025-.542-1.894-.724-2.493-.156-.603-.252-.948-.252-.948z" class="cls-5" data-name="Path 953" transform="translate(-.924 -2.812)"/>
        </g>
        <g id="Group_604" data-name="Group 604" transform="rotate(1 -22449.2 41912.164)">
            <path id="Path_954" d="M450.742 177.284s5.7-10.329 11.237-14.848 13.044-5.616 13.044-5.616-3.511 4.933-5.716 8.065c-2.866 4.071-4.778 6.609-9.7 9.535a25.886 25.886 0 0 1-8.865 2.864z" class="cls-6" data-name="Path 954"/>
            <path id="Path_955" d="M456.1 176.588l.58-.676c.378-.421.9-1.039 1.565-1.748s1.424-1.548 2.267-2.419 1.751-1.793 2.667-2.707 1.848-1.81 2.735-2.637 1.73-1.583 2.449-2.236c1.45-1.292 2.46-2.1 2.46-2.1l-.608.651c-.4.4-.942 1-1.624 1.691l-2.317 2.367-2.684 2.684-2.714 2.654-2.4 2.286c-.7.672-1.306 1.209-1.718 1.6z" class="cls-5" data-name="Path 955" transform="translate(-1.52 -1.486)"/>
        </g>
        <g id="Group_605" data-name="Group 605" transform="rotate(-74.99 945.372 125.924)">
            <path id="Path_956" d="M580.591 440.891a26.256 26.256 0 0 1-6.72-.363l1.652-1.458a14.889 14.889 0 0 1-2.371 1.232c-.914-.3-2.847-1.249-2.847-1.249l4.21-2.833s-4.724 2.562-5.069 2.372c-2.424-1.34-5.037-4.32-6.849-7.3a29.649 29.649 0 0 1-3.61-9.978l1.6-.714-1.687.214c-.084-.586-.223-2.059-.223-2.059l1.334-.37-1.365-.088.436-7.153a46.354 46.354 0 0 1 8.225 4.237c.285.182-.788 2.393-.788 2.393s1.144-2.186 1.292-2.084c.566.39 2.1 1.146 2.679 1.583l-2.455 3.692 2.839-3.329c2.522 1.362 4.743 4.032 6.222 5.951 3.228 4.192 5.919 9.372 3.495 17.304z" class="cls-5" data-name="Path 956"/>
            <path id="Path_957" d="M565.737 419.317l.739 1.048.839 1.206 1.08 1.567 2.692 3.924 1.52 2.208c.511.756 1.045 1.514 1.579 2.271.519.768 1.065 1.517 1.59 2.262l1.562 2.174 1.487 2.013 1.363 1.781c.426.55.835 1.036 1.184 1.482s.67.819.937 1.126c.528.619.825.981.825.981s-.356-.3-.97-.839c-.307-.27-.685-.595-1.08-1s-.87-.847-1.342-1.364-.99-1.074-1.512-1.684-1.069-1.257-1.609-1.946-1.109-1.393-1.645-2.139-1.1-1.491-1.629-2.258-1.056-1.538-1.56-2.3-.987-1.53-1.454-2.268-.9-1.467-1.309-2.152-.783-1.347-1.127-1.955c-.684-1.218-1.227-2.25-1.595-2.978s-.565-1.16-.565-1.16z" class="cls-1" data-name="Path 957" transform="translate(-3.752 -4.321)"/>
            <path id="Path_958" d="M609.727 482.964l-8.758-13.437.535-.385s8.707 12.367 9.187 13.43c.193.428.064 1.822-.964.392z" class="cls-5" data-name="Path 958" transform="translate(-22.379 -30.663)"/>
        </g>
    </g>
</svg>
