<?xml version="1.0" encoding="utf-8"?>
<!-- Generator: Adobe Illustrator 19.0.0, SVG Export Plug-In . SVG Version: 6.00 Build 0)  -->
<svg version="1.1" id="Layer_1" xmlns="http://www.w3.org/2000/svg" xmlns:xlink="http://www.w3.org/1999/xlink" x="0px" y="0px"
	 viewBox="151 -80 322.6 180" style="enable-background:new 151 -80 322.6 180;" xml:space="preserve">
<style type="text/css">
	.st0{fill:#F9F9F9;}
	.st1{fill:#54BA82;}
	.st2{fill:#192E3F;}
	.st3{fill:#2F5568;}
	.st4{fill:#71D19A;}
	.st5{fill:#34485F;}
	.st6{fill:#253A4F;}
	.st7{fill:#274C63;}
	.st8{fill:#70D19A;}
	.st9{fill:#A7EAC2;}
	.st10{fill:#89E0AC;}
</style>
<g id="Group_594" transform="translate(-1101.473 -214)">
	<path id="Path_940" class="st0" d="M1273.3,230c9.5-53.2,57.3-122.6,114.6-85.6s54.5,17.7,110.5,0s100.9,113.7,42.3,156.5
		s-106.4-35.4-175.9-7.4S1263.7,283.2,1273.3,230z"/>
	<g id="Group_560" transform="translate(1631 -6.147)">
		<polygon class="st1" points="-205,306.9 -206,308.4 -207,306.9 -207,277.1 -205,277.1 		"/>
		<polygon class="st2" points="-205,275.7 -206,277.3 -207,275.7 -207,247.1 -205,247.1 		"/>
		<g id="Group_115" transform="translate(-443 254.147)">
			<g id="Group_114">
				<path id="Path_240" class="st2" d="M237,23V-7l-18.3-44.4c0,0-12.4,14-7.8,32.6S237,23,237,23z"/>
				<path id="Path_241" class="st3" d="M197.9-80l13,61.3l7.8-32.6L197.9-80z"/>
				<path id="Path_242" class="st4" d="M211-18.7l-13-61.3l-41.7,1.3L151-59.1l26.1,6.5l-14.3,19.6L211-18.7z"/>
				<path id="Path_243" class="st5" d="M171.6-45L151-59.1l26.1,6.5L171.6-45z"/>
			</g>
			<path id="Path_244" class="st1" d="M211-18.7l-48.2-14.3L237,54.3V23L211-18.7z"/>
		</g>
		<g id="Group_117" transform="translate(-356.952 254.147)">
			<g id="Group_116">
				<path id="Path_245" class="st6" d="M151,23V-7l18.3-44.3l10.2,31L151,23z"/>
				<path id="Path_246" class="st7" d="M188.8-80l-11.7,61.3l-7.8-32.6L188.8-80z"/>
				<path id="Path_247" class="st4" d="M177.1-18.7L188.8-80l43,1.3l3.9,19.6L211-52.6l13,19.6L177.1-18.7z"/>
				<path id="Path_248" class="st5" d="M216.2-44.8l19.6-14.3L211-52.6L216.2-44.8z"/>
			</g>
			<path id="Path_249" class="st1" d="M177.1-18.7L224-33.1l-73,87.4V23L177.1-18.7z"/>
		</g>
	</g>
	<g id="Vector_Smart_Object3_copy_13" transform="matrix(-0.096, -0.995, 0.996, -0.095, 1032.129, 458.161)">
		<g id="Group_35" transform="translate(53.362 171.031)">
			<path id="Path_62" class="st8" d="M67.3,161.6l-1.9,10.8l8.4,7.1l1.9-10.8L67.3,161.6z"/>
			<path id="Path_63" class="st9" d="M67.3,161.6l10.4-3.7L86,165l-10.4,3.7L67.3,161.6z"/>
			<path id="Path_64" class="st10" d="M73.7,179.6l10.4-3.7L86,165l-10.4,3.7L73.7,179.6z"/>
		</g>
	</g>
	<g id="Vector_Smart_Object3_copy_13-2" transform="matrix(-0.91, -0.415, 0.415, -0.909, 1390.448, 456.858)">
		<g id="Group_35-2" transform="translate(53.362 171.031)">
			<path id="Path_62-2" class="st8" d="M-101.7,140.2l-2.4,13.5l10.5,8.8l2.4-13.5L-101.7,140.2z"/>
			<path id="Path_63-2" class="st9" d="M-101.7,140.2l12.9-4.7l10.5,8.8l-12.9,4.7L-101.7,140.2z"/>
			<path id="Path_64-2" class="st10" d="M-93.7,162.5l12.9-4.7l2.4-13.5l-12.9,4.7L-93.7,162.5z"/>
		</g>
	</g>
	<g id="Vector_Smart_Object3_copy_13-3" transform="matrix(-0.992, 0.13, -0.13, -0.991, 1193.751, 448.587)">
		<g id="Group_35-3" transform="translate(53.362 171.031)">
			<path id="Path_62-3" class="st8" d="M-158.6,62.5l-1.4,7.9l6.1,5.2l1.4-7.9L-158.6,62.5z"/>
			<path id="Path_63-3" class="st9" d="M-158.6,62.5l7.6-2.7l6.1,5.2l-7.6,2.7L-158.6,62.5z"/>
			<path id="Path_64-3" class="st10" d="M-153.9,75.5l7.6-2.7l1.4-7.9l-7.6,2.7L-153.9,75.5z"/>
		</g>
	</g>
	<g id="Vector_Smart_Object3_copy_13-4" transform="matrix(-0.493, -0.87, 0.871, -0.492, 1047.574, 492.904)">
		<g id="Group_35-4" transform="translate(53.362 171.031)">
			<path id="Path_62-4" class="st8" d="M-3.4,173l-1.2,6.5l5.1,4.3l1.2-6.5L-3.4,173z"/>
			<path id="Path_63-4" class="st9" d="M-3.4,173l6.2-2.3l5.1,4.3l-6.2,2.3L-3.4,173z"/>
			<path id="Path_64-4" class="st10" d="M0.5,183.8l6.2-2.3l1.2-6.5l-6.2,2.3L0.5,183.8z"/>
		</g>
	</g>
	<g id="Vector_Smart_Object3_copy_13-5" transform="matrix(-0.216, -0.976, 0.977, -0.216, 1219.264, 418.2)">
		<g id="Group_35-5" transform="translate(53.362 171.031)">
			<path id="Path_62-5" class="st8" d="M46.9,167.3l-1.4,7.7l6,5.1l1.4-7.7L46.9,167.3z"/>
			<path id="Path_63-5" class="st9" d="M46.9,167.3l7.4-2.7l6,5.1l-7.4,2.7L46.9,167.3z"/>
			<path id="Path_64-5" class="st10" d="M51.5,180.1l7.4-2.7l1.4-7.7l-7.4,2.7L51.5,180.1z"/>
		</g>
	</g>
</g>
</svg>
