<?xml version="1.0" encoding="utf-8"?>
<!-- Generator: Adobe Illustrator 19.0.0, SVG Export Plug-In . SVG Version: 6.00 Build 0)  -->
<svg version="1.1" id="Layer_1" xmlns="http://www.w3.org/2000/svg" xmlns:xlink="http://www.w3.org/1999/xlink" x="0px" y="0px"
	 viewBox="300 -87 620.2 137" style="enable-background:new 300 -87 620.2 137;" xml:space="preserve">
<style type="text/css">
	.st0{fill:#F4FAFE;}
	.st1{fill:#E8E6F2;}
	.st2{fill:#5E3BAF;}
	.st3{clip-path:url(#SVGID_2_);}
	.st4{fill:#353535;}
	.st5{enable-background:new    ;}
	.st6{fill:#111111;}
	.st7{fill:#70D19A;}
	.st8{fill:#A7EAC2;}
	.st9{fill:#89E0AC;}
</style>
<g id="Group_616" transform="translate(-225.814 -174)">
	<path id="Path_877" class="st0" d="M527,87c0,0-10.3,69,28.9,84s139.5-22,170.5-36s95.1-16,156,36s161.2,53,204.6,13
		s58.9-97,58.9-97H527z"/>
	<g id="PWA_copy" transform="translate(651.334 248.536)">
		<path id="Rectangle_37_copy_3-2" class="st1" d="M337.5-98.5h75c20.4,0,37,16.6,37,37l0,0c0,20.4-16.6,37-37,37h-75
			c-20.4,0-37-16.6-37-37l0,0C300.5-82,317.1-98.5,337.5-98.5z"/>
		<g id="Vector_Smart_Object" transform="translate(43.097 24.709)">
			<path id="Path_1" class="st2" d="M347.2-99l-7,16.6l-5-16.6h-5.2l-5.4,16.6l-3.8-7.5l-3.4,10.6l3.5,6h6.7l4.9-14.8l4.6,14.8h6.7
				L354-99H347.2z"/>
			<g id="Group_2" transform="translate(0 0)">
				<g>
					<defs>
						<rect id="SVGID_1_" x="300.4" y="-99.2" width="67" height="26"/>
					</defs>
					<clipPath id="SVGID_2_">
						<use xlink:href="#SVGID_1_"  style="overflow:visible;"/>
					</clipPath>
					<g id="Group_1" class="st3">
						<path id="Path_2" class="st4" d="M306.5-82.2h4.2c1.1,0,2.3-0.1,3.4-0.4l1.1-3.4l3-9.4c-0.2-0.4-0.5-0.7-0.8-1
							c-1.6-1.7-3.8-2.6-6.8-2.6H300v25.6h6.5V-82.2z M312-93.1c0.6,0.7,1,1.6,0.9,2.5c0,0.9-0.2,1.8-0.8,2.5
							c-0.9,0.8-2.1,1.2-3.2,1h-2.4V-94h2.4C310-94.1,311.1-93.8,312-93.1L312-93.1z M349.8-78l2-5h5.6l-2.7-7.5l3.4-8.5l9.6,25.6
							h-7.1L359-78H349.8z"/>
					</g>
				</g>
			</g>
		</g>
	</g>
	<g id="SPA" transform="translate(455.629 219.372)">
		<path id="Rectangle_37_copy-2" class="st1" d="M337.3-99.4h59c20.4,0,37,16.6,37,37l0,0c0,20.4-16.6,37-37,37h-59
			c-20.4,0-37-16.6-37-37l0,0C300.3-82.8,316.9-99.4,337.3-99.4z"/>
		<g class="st5">
			<path class="st6" d="M352.2-56.3c0,2.3-0.8,4-2.4,5.3c-1.6,1.3-3.9,1.9-6.8,1.9c-2.7,0-5-0.5-7.1-1.5v-4.9
				c1.7,0.8,3.1,1.3,4.3,1.6c1.2,0.3,2.2,0.5,3.2,0.5c1.2,0,2.1-0.2,2.7-0.7c0.6-0.4,0.9-1.1,0.9-2c0-0.5-0.1-0.9-0.4-1.3
				s-0.7-0.7-1.2-1.1c-0.5-0.4-1.6-0.9-3.2-1.7c-1.5-0.7-2.7-1.4-3.4-2.1c-0.8-0.7-1.4-1.4-1.8-2.3c-0.5-0.9-0.7-1.9-0.7-3.1
				c0-2.2,0.7-3.9,2.2-5.2c1.5-1.3,3.6-1.9,6.2-1.9c1.3,0,2.5,0.2,3.7,0.5c1.2,0.3,2.4,0.7,3.7,1.3l-1.7,4.1
				c-1.3-0.5-2.4-0.9-3.3-1.1c-0.9-0.2-1.7-0.3-2.6-0.3c-1,0-1.8,0.2-2.3,0.7c-0.5,0.5-0.8,1.1-0.8,1.8c0,0.5,0.1,0.9,0.3,1.2
				c0.2,0.3,0.6,0.7,1,1c0.5,0.3,1.6,0.9,3.4,1.8c2.3,1.1,3.9,2.2,4.8,3.4C351.8-59.3,352.2-57.9,352.2-56.3z"/>
			<path class="st6" d="M374-66.6c0,2.7-0.8,4.7-2.5,6.2c-1.7,1.4-4.1,2.1-7.2,2.1h-2.3v8.9h-5.3v-25h8c3,0,5.3,0.7,6.9,2
				S374-69.2,374-66.6z M362.1-62.6h1.7c1.6,0,2.8-0.3,3.7-1c0.8-0.6,1.2-1.6,1.2-2.8c0-1.2-0.3-2.2-1-2.8c-0.7-0.6-1.7-0.9-3.2-0.9
				h-2.4V-62.6z"/>
			<path class="st6" d="M394-49.4l-1.8-5.9h-9.1l-1.8,5.9h-5.7l8.8-25.1h6.5l8.9,25.1H394z M391-59.8c-1.7-5.4-2.6-8.4-2.8-9.1
				c-0.2-0.7-0.4-1.3-0.5-1.7c-0.4,1.5-1.5,5.1-3.2,10.8H391z"/>
		</g>
	</g>
	<g id="Vector_Smart_Object3_copy_13" transform="matrix(0.663, -0.748, 0.749, 0.663, 140.919, 191.174)">
		<g id="Group_35" transform="translate(53.362 171.031)">
			<path id="Path_62" class="st7" d="M277,166.3l-3.9,21.6l16.8,14.1l3.9-21.6L277,166.3z"/>
			<path id="Path_63" class="st8" d="M277,166.3l20.6-7.5l16.8,14.1l-20.6,7.5L277,166.3z"/>
			<path id="Path_64" class="st9" d="M289.9,202l20.6-7.5l3.9-21.6l-20.6,7.5L289.9,202z"/>
		</g>
	</g>
	<g id="Vector_Smart_Object3_copy_13-2" transform="matrix(0.794, -0.608, 0.609, 0.793, 451.842, 125.057)">
		<g id="Group_35-2" transform="translate(53.362 171.031)">
			<path id="Path_62-2" class="st7" d="M301.1,109.4l-2.9,16.1l12.5,10.5l2.9-16.1L301.1,109.4z"/>
			<path id="Path_63-2" class="st8" d="M301.1,109.4l15.4-5.6l12.5,10.5l-15.4,5.6L301.1,109.4z"/>
			<path id="Path_64-2" class="st9" d="M310.7,136l15.4-5.6l2.9-16.1l-15.4,5.6L310.7,136z"/>
		</g>
	</g>
</g>
</svg>
